<?xml version="1.0" standalone="no"?>
<!DOCTYPE svg PUBLIC "-//W3C//DTD SVG 1.1//EN" "http://www.w3.org/Graphics/SVG/1.1/DTD/svg11.dtd" >
<svg xmlns="http://www.w3.org/2000/svg">
<metadata></metadata>
<defs>
<font id="dauphineregular" horiz-adv-x="890" >
<font-face units-per-em="2048" ascent="1536" descent="-512" />
<missing-glyph horiz-adv-x="512" />
<glyph horiz-adv-x="2048" />
<glyph horiz-adv-x="2048" />
<glyph unicode="&#xd;" horiz-adv-x="2048" />
<glyph unicode=" "  horiz-adv-x="512" />
<glyph unicode="&#x09;" horiz-adv-x="512" />
<glyph unicode="&#xa0;" horiz-adv-x="512" />
<glyph unicode="!" horiz-adv-x="348" d="M115 0v160h159v-160h-159zM123 307v1137h143v-1137h-143z" />
<glyph unicode="&#x22;" horiz-adv-x="780" d="M127 991l149 453h127l-149 -453h-127zM397 991l150 453h127l-150 -453h-127z" />
<glyph unicode="#" horiz-adv-x="1187" d="M102 391v129h902v-129h-902zM143 0l389 1444h134l-390 -1444h-133zM184 924v129h901v-129h-901zM522 0l389 1444h133l-389 -1444h-133z" />
<glyph unicode="$" horiz-adv-x="1161" d="M102 410h154q0 -137 88 -219t242 -82q153 0 241 82t88 219q0 53 -21.5 93t-77 72.5t-91 47.5t-120.5 46q-3 1 -5 2t-4.5 2t-5 1.5t-4.5 1.5q-172 63 -224 89q-143 71 -188 178q-27 62 -27 144q0 165 122.5 271t295.5 106q113 0 209 -46.5t154.5 -134t58.5 -196.5h-153 q0 105 -80 176.5t-189 71.5q-121 0 -194.5 -69.5t-73.5 -178.5q0 -30 8.5 -56t20.5 -46t35.5 -39t44 -32t55 -28.5t59 -25t66.5 -24.5q26 -10 75.5 -27t74.5 -26t67 -26t64 -29t54.5 -32.5t50 -39t38.5 -45.5t31 -56t17 -66t7 -79q0 -137 -67 -236.5t-174 -146.5t-238 -47 q-97 0 -183.5 27.5t-154 80t-107 135.5t-39.5 187zM510 57h135v-262h-135v262zM510 1386v263h135v-263h-135z" />
<glyph unicode="%" horiz-adv-x="1167" d="M102 1223q0 -100 70 -170t170 -70t171 70t71 170t-71 170.5t-171 70.5t-170 -70.5t-70 -170.5zM109 0l811 1444h141l-811 -1444h-141zM215 1223q0 55 37 95t90 40t91 -40t38 -95q0 -54 -37.5 -93.5t-91.5 -39.5q-53 0 -90 39t-37 94zM584 219q0 -100 69.5 -169.5 t169.5 -69.5t171 70t71 169q0 100 -71 171t-171 71q-99 0 -169 -71t-70 -171zM696 219q0 55 37 95t90 40t91 -40t38 -95q0 -54 -37.5 -93.5t-91.5 -39.5q-53 0 -90 39t-37 94z" />
<glyph unicode="&#x26;" horiz-adv-x="1150" d="M82 473q0 199 135.5 334t335.5 135q84 0 135 53.5t51 139.5t-51 141t-135 55t-134 -55t-50 -141q0 -45 41 -113l700 -1042h-156l-684 987q-45 65 -45 168q0 136 95.5 232.5t232.5 96.5q136 0 233 -97t97 -232q0 -137 -96.5 -231.5t-233.5 -94.5t-232.5 -98.5 t-95.5 -237.5q0 -141 96.5 -250.5t231.5 -109.5q153 0 251.5 102.5t98.5 257.5v176h144v-174q0 -134 -66.5 -248t-180 -180.5t-247.5 -66.5q-205 0 -338 142t-133 351z" />
<glyph unicode="'" horiz-adv-x="509" d="M127 991l149 453h127l-149 -453h-127z" />
<glyph unicode="(" horiz-adv-x="819" d="M143 676q0 320 165.5 572t428.5 345v-153q-189 -79 -316.5 -289.5t-127.5 -474.5t127.5 -474.5t316.5 -289.5v-154q-263 93 -428.5 345.5t-165.5 572.5z" />
<glyph unicode=")" horiz-adv-x="819" d="M82 -88v-154q263 93 428.5 345.5t165.5 572.5t-165.5 572t-428.5 345v-153q189 -79 316.5 -289.5t127.5 -474.5t-127.5 -474.5t-316.5 -289.5z" />
<glyph unicode="*" horiz-adv-x="1130" d="M123 944v115l401 -10h84l400 10v-115l-396 10h-90zM209 1272l86 86l272 -285l68 -69l287 -273l-86 -86l-273 287l-69 69zM211 729l293 277l59 59l275 291l82 -82l-287 -273l-66 -63l-274 -291zM504 559l10 395v99l-10 391h123l-11 -393v-97l11 -395h-123z" />
<glyph unicode="+" horiz-adv-x="993" d="M102 516v125h789v-125h-789zM430 143v871h133v-871h-133z" />
<glyph unicode="," horiz-adv-x="395" d="M20 -309l150 452h143l-149 -452h-144z" />
<glyph unicode="-" horiz-adv-x="655" d="M41 465v143h573v-143h-573z" />
<glyph unicode="." horiz-adv-x="364" d="M98 0v164h168v-164h-168z" />
<glyph unicode="/" horiz-adv-x="798" d="M102 0l492 1444h143l-491 -1444h-144z" />
<glyph unicode="0" horiz-adv-x="1085" d="M82 721q0 210 63.5 381.5t169 266.5t228.5 95t228.5 -95t169 -266.5t63.5 -381.5t-63.5 -381t-169 -265.5t-228.5 -94.5t-228.5 94.5t-169 265.5t-63.5 381zM236 721q0 -164 41 -304t112 -222t154 -82t154 82t112 222t41 304t-41 304.5t-112 223t-154 82.5t-154 -82.5 t-112 -223t-41 -304.5z" />
<glyph unicode="1" horiz-adv-x="796" d="M164 1044v123h20q106 0 185.5 83.5t79.5 191.5h71q0 -176 -88.5 -287t-251.5 -111h-16zM449 0v1444h143v-1444h-143z" />
<glyph unicode="2" horiz-adv-x="1052" d="M123 0h807v143h-664v-39l572 719q88 114 88 240q0 168 -118.5 284.5t-287.5 116.5q-168 0 -282.5 -116t-114.5 -285v-37h143v41q0 108 74 186t180 78t180 -78t74 -186q0 -87 -43 -141l-608 -783v-143z" />
<glyph unicode="3" horiz-adv-x="1058" d="M111 418q0 -187 117.5 -312.5t299.5 -125.5q183 0 300.5 125.5t117.5 312.5q0 182 -115.5 289.5t-302.5 107.5v-104q143 0 256 108t113 258q0 163 -104.5 275t-264.5 112q-159 0 -263.5 -112t-104.5 -275h151q0 112 56.5 183t160.5 71t160.5 -71t56.5 -183 q0 -106 -62 -172.5t-155 -66.5h-77v-144h77q115 0 190 -76t75 -192q0 -128 -73 -220.5t-192 -92.5t-191.5 92t-72.5 221h-153v-8z" />
<glyph unicode="4" horiz-adv-x="1095" d="M123 356v144l491 944h158l-539 -1026l-4 71h744v-133h-850zM614 0v838l144 133v-971h-144z" />
<glyph unicode="5" horiz-adv-x="1062" d="M113 418q0 -187 117.5 -312.5t299.5 -125.5q186 0 303 131.5t117 345.5t-117 346.5t-303 132.5q-163 0 -280 -145l80 2v548l-35 -30h543v133h-652v-729h162q72 88 182 88q119 0 193 -102.5t74 -245.5t-73.5 -242.5t-193.5 -99.5q-119 0 -191.5 92t-72.5 221h-153v-8z" />
<glyph unicode="6" horiz-adv-x="1083" d="M123 606q0 -287 120 -456.5t308 -169.5q121 0 217.5 63t149.5 171.5t53 240.5q0 203 -119 342t-301 139q-137 0 -226.5 -97t-119.5 -272l71 154q0 167 34.5 305t103 221.5t157.5 83.5q90 0 154 -61.5t92 -157.5h144q-34 159 -134.5 255.5t-255.5 96.5 q-140 0 -242.5 -112.5t-154 -305t-51.5 -440.5zM276 475q0 133 72.5 230.5t202.5 97.5q120 0 193 -101.5t73 -246.5q0 -142 -73 -242t-193 -100q-80 0 -144 53t-97.5 135t-33.5 174z" />
<glyph unicode="7" horiz-adv-x="901" d="M123 0l571 1341l84 -30h-655v133h717v-144l-557 -1300h-160z" />
<glyph unicode="8" horiz-adv-x="999" d="M82 418q0 -187 117.5 -312.5t300.5 -125.5t300.5 125.5t117.5 312.5q0 183 -116 295t-302 112t-302 -112t-116 -295zM131 1077q0 -150 113 -258t256 -108t255.5 108t112.5 258q0 163 -104.5 275t-263.5 112q-160 0 -264.5 -112t-104.5 -275zM236 426q0 117 75 198t189 81 t189 -81t75 -198q0 -129 -72.5 -221t-191.5 -92t-191.5 92t-72.5 221zM283 1077q0 112 56.5 183t160.5 71t160.5 -71t56.5 -183q0 -106 -62 -172.5t-155 -66.5t-155 66.5t-62 172.5z" />
<glyph unicode="9" horiz-adv-x="1083" d="M113 989q0 -204 118.5 -342.5t300.5 -138.5q137 0 227.5 97t119.5 272l-72 -154q0 -167 -34.5 -305t-103 -221.5t-157.5 -83.5q-90 0 -154 61.5t-92 157.5h-143q34 -159 134 -255.5t255 -96.5q140 0 243 112.5t154.5 305t51.5 440.5q0 286 -120.5 456t-308.5 170 q-121 0 -217 -63t-149 -171.5t-53 -240.5zM266 989q0 142 73 242t193 100q80 0 144 -53t97.5 -135t33.5 -174q0 -133 -72.5 -230.5t-202.5 -97.5q-120 0 -193 101.5t-73 246.5z" />
<glyph unicode=":" horiz-adv-x="364" d="M98 143v164h168v-164h-168zM98 649v164h168v-164h-168z" />
<glyph unicode=";" horiz-adv-x="374" d="M2 -309l150 452h143l-150 -452h-143zM127 649v164h168v-164h-168z" />
<glyph unicode="&#x3c;" horiz-adv-x="921" d="M82 573l737 -444v147l-682 412v-82l682 410v147l-737 -442v-148z" />
<glyph unicode="=" horiz-adv-x="897" d="M102 362h693v123h-693v-123zM102 649h693v123h-693v-123z" />
<glyph unicode="&#x3e;" horiz-adv-x="921" d="M82 129v147l682 412v-82l-682 410v147l737 -442v-148z" />
<glyph unicode="?" horiz-adv-x="1007" d="M102 1026v37q0 169 115 285t283 116q169 0 287 -116.5t118 -284.5q0 -124 -90 -240l-201 -252q-43 -54 -43 -141v-123h-147v123q0 126 88 240l201 256q41 52 41 141q0 108 -74 186t-180 78t-180 -78t-74 -186v-41h-144zM418 0v160h160v-160h-160z" />
<glyph unicode="@" horiz-adv-x="1837" d="M102 647q0 -166 64.5 -317t174 -260t260.5 -173.5t317 -64.5q212 0 395 105l-62 108q-141 -82 -333 -82q-191 0 -346 89.5t-241.5 246t-86.5 348.5t86.5 349t241.5 247t346 90q142 0 265.5 -53t209.5 -144.5t135 -218t49 -270.5q0 -350 -209 -350q-51 0 -91 41t-40 113 v602h-133v-592q0 -113 73.5 -197t190.5 -84q164 0 255 130.5t91 336.5q0 167 -61.5 317.5t-167 260.5t-253.5 174.5t-314 64.5t-317 -64.5t-260.5 -174t-174 -261t-64.5 -317.5zM512 633q0 -114 44 -213t129 -162t194 -63q65 0 118.5 26t89 69t60 100.5t35 118t10.5 124.5 q0 81 -18 156t-53.5 140t-98 104.5t-143.5 39.5q-108 0 -193.5 -63.5t-129.5 -163t-44 -213.5zM655 633q0 130 60.5 221.5t163.5 91.5t164 -92t61 -221t-61 -220t-164 -91t-163.5 91t-60.5 220z" />
<glyph unicode="A" horiz-adv-x="1241" d="M61 0l478 1444h163l478 -1444h-148l-436 1346h49l-436 -1346h-148zM352 510v135h553v-135h-553z" />
<glyph unicode="B" horiz-adv-x="1099" d="M133 0v1444h463q155 0 264 -105t109 -258q0 -152 -108.5 -251t-264.5 -99v123q122 0 223 -53.5t160 -150.5t59 -218q0 -184 -128.5 -308t-313.5 -124h-463zM199 133h397q121 0 205 88.5t84 210.5q0 121 -83.5 207t-205.5 86h-395v135h395q92 0 155.5 64.5t63.5 156.5 q0 93 -64.5 161.5t-154.5 68.5h-397l77 84v-1317z" />
<glyph unicode="C" horiz-adv-x="1249" d="M82 721q0 112 23 219t70 202t113 166.5t159 113.5t200 42q193 0 326 -124.5t194 -325.5h-159q-23 64 -55 118.5t-76 100.5t-103 72t-127 26q-80 0 -148.5 -37t-116 -98.5t-81 -141t-49.5 -164.5t-16 -169t16 -169t49.5 -164t81 -140t116 -98t148.5 -37q68 0 127 26 t103 72t76 100.5t55 118.5h159q-61 -201 -194 -325.5t-326 -124.5q-107 0 -200 41.5t-159 113t-113 166t-70 201.5t-23 219z" />
<glyph unicode="D" horiz-adv-x="1230" d="M133 0h465q126 0 232 63.5t174.5 167t106.5 231t38 259.5q0 106 -22.5 209t-69 196t-110.5 164t-154.5 112.5t-194.5 41.5h-465v-1444zM252 133l24 -18v1216l-24 -20h326q83 0 153 -34t118 -91.5t81.5 -134t49 -160.5t15.5 -172q0 -102 -28.5 -204.5t-79.5 -188 t-132 -139.5t-177 -54h-326z" />
<glyph unicode="E" horiz-adv-x="983" d="M133 0v1444h789v-133h-670l24 20v-1216l-24 18h670v-133h-789zM217 653v135h490v-135h-490z" />
<glyph unicode="F" horiz-adv-x="952" d="M133 0v1444h778v-133h-669l34 41v-1352h-143zM217 653v135h490v-135h-490z" />
<glyph unicode="G" horiz-adv-x="1298" d="M82 721q0 112 23 219t70 202t113 166.5t159 113.5t200 42q193 0 326 -124.5t194 -325.5h-159q-23 64 -55 118.5t-76 100.5t-103 72t-127 26q-80 0 -148.5 -37t-116 -98.5t-81 -141t-49.5 -164.5t-16 -169t16 -169t49.5 -164t81 -140t116 -98t148.5 -37q84 0 156 40 t122 107t83.5 150.5t46.5 175.5l53 -80h-461v133h559q-10 -126 -51 -242t-109 -210t-171.5 -150.5t-227.5 -56.5q-107 0 -200 41.5t-159 113t-113 166t-70 201.5t-23 219z" />
<glyph unicode="H" horiz-adv-x="1167" d="M133 0v1444h143v-1444h-143zM238 653v135h696v-135h-696zM891 0v1444h143v-1444h-143z" />
<glyph unicode="I" horiz-adv-x="409" d="M133 0v1444h143v-1444h-143z" />
<glyph unicode="J" horiz-adv-x="968" d="M72 414v20h143v-20q0 -129 67.5 -215t186.5 -86t186.5 86t67.5 215v1030h143v-1030q0 -189 -108 -311.5t-289 -122.5q-119 0 -211 62t-139 160t-47 212z" />
<glyph unicode="K" horiz-adv-x="989" d="M133 0v1444h143v-1444h-143zM246 545v211l559 688h164zM270 715l123 78l576 -793h-185z" />
<glyph unicode="L" horiz-adv-x="972" d="M133 0h778v133h-669l34 -41v1352h-143v-1444z" />
<glyph unicode="M" horiz-adv-x="1413" d="M133 0h139v1311h-32l405 -1311h123l406 1311h-33v-1311h139v1444h-215l-395 -1311h73l-395 1311h-215v-1444z" />
<glyph unicode="N" horiz-adv-x="1187" d="M133 0v1444h184l652 -1311h-54v1311h140v-1444h-185l-651 1311h53v-1311h-139z" />
<glyph unicode="O" horiz-adv-x="1290" d="M82 721q0 112 23 219t70 202t113 166.5t159 113.5t200 42t199.5 -42t158 -113.5t112 -166.5t69 -202t22.5 -219t-22.5 -219t-69 -201.5t-112 -166t-158 -113t-199.5 -41.5t-200 41.5t-159 113t-113 166t-70 201.5t-23 219zM236 721q0 -84 16 -169t49.5 -164t81 -140 t116 -98t148.5 -37t148 37t115 97.5t80.5 140t49 164t15.5 169.5t-15.5 169.5t-49 164.5t-80.5 141t-115 98t-148 37t-148.5 -37t-116 -98.5t-81 -141t-49.5 -164.5t-16 -169z" />
<glyph unicode="P" horiz-adv-x="1089" d="M133 0v1444h465q114 0 213.5 -47t163 -139.5t63.5 -210.5q0 -119 -63.5 -211.5t-163 -139.5t-213.5 -47h-397v133h397q125 0 206 72t81 193t-80.5 192.5t-206.5 71.5h-399l77 32v-1343h-143z" />
<glyph unicode="Q" horiz-adv-x="1290" d="M82 721q0 112 23 219t70 202t113 166.5t159 113.5t200 42t199.5 -42t158 -113.5t112 -166.5t69 -202t22.5 -219t-22.5 -219t-69 -201.5t-112 -166t-158 -113t-199.5 -41.5t-200 41.5t-159 113t-113 166t-70 201.5t-23 219zM236 721q0 -84 16 -169t49.5 -164t81 -140 t116 -98t148.5 -37t148 37t115 97.5t80.5 140t49 164t15.5 169.5t-15.5 169.5t-49 164.5t-80.5 141t-115 98t-148 37t-148.5 -37t-116 -98.5t-81 -141t-49.5 -164.5t-16 -169zM594 0h147l150 -453h-148z" />
<glyph unicode="R" horiz-adv-x="1130" d="M133 0v1444h465q114 0 213.5 -47t163 -139.5t63.5 -210.5q0 -119 -63.5 -211.5t-163 -139.5t-213.5 -47h-397v133h397q125 0 206 72t81 193t-80.5 192.5t-206.5 71.5h-399l77 32v-1343h-143zM535 668h163l361 -668h-164z" />
<glyph unicode="S" horiz-adv-x="1161" d="M102 410h154q0 -137 88 -219t242 -82q153 0 241 82t88 219q0 53 -21.5 93t-77 72.5t-91 47.5t-120.5 46q-3 1 -5 2t-4.5 2t-5 1.5t-4.5 1.5q-172 63 -224 89q-143 71 -188 178q-27 62 -27 144q0 165 122.5 271t295.5 106q113 0 209 -46.5t154.5 -134t58.5 -196.5h-153 q0 105 -80 176.5t-189 71.5q-121 0 -194.5 -69.5t-73.5 -178.5q0 -30 8.5 -56t20.5 -46t35.5 -39t44 -32t55 -28.5t59 -25t66.5 -24.5q26 -10 75.5 -27t74.5 -26t67 -26t64 -29t54.5 -32.5t50 -39t38.5 -45.5t31 -56t17 -66t7 -79q0 -137 -67 -236.5t-174 -146.5t-238 -47 q-97 0 -183.5 27.5t-154 80t-107 135.5t-39.5 187z" />
<glyph unicode="T" horiz-adv-x="1064" d="M31 1311v133h1003v-133h-1003zM461 0v1423h143v-1423h-143z" />
<glyph unicode="U" horiz-adv-x="1085" d="M92 430v1014h144v-1014q0 -131 88.5 -224t218.5 -93t218.5 93t88.5 224v1014h143v-1014q0 -196 -131 -323t-319 -127t-319.5 127t-131.5 323z" />
<glyph unicode="V" horiz-adv-x="1241" d="M61 1444l478 -1444h163l478 1444h-148l-436 -1346h49l-436 1346h-148z" />
<glyph unicode="W" horiz-adv-x="1888" d="M61 1444l375 -1444h164l375 1300h-62l375 -1300h164l375 1444h-148l-333 -1305h34l-364 1305h-144l-364 -1305h35l-334 1305h-148z" />
<glyph unicode="X" horiz-adv-x="1265" d="M61 0l500 827l62 58l333 559h168l-419 -699l-60 -55l-416 -690h-168zM141 1444h168l895 -1444h-168z" />
<glyph unicode="Y" horiz-adv-x="1097" d="M20 1444h166l385 -709h-49l385 709h166l-526 -932zM473 0v670h150v-670h-150z" />
<glyph unicode="Z" horiz-adv-x="1122" d="M82 0v143l803 1198l22 -30h-745v133h878v-144l-804 -1183l-41 16h845v-133h-958z" />
<glyph unicode="[" horiz-adv-x="573" d="M123 -246h430v133h-346l59 -55v1667l-59 -55h346v133h-430v-1823z" />
<glyph unicode="\" horiz-adv-x="798" d="M61 1444l492 -1444h143l-491 1444h-144z" />
<glyph unicode="]" horiz-adv-x="573" d="M20 -113h347l-60 -55v1667l60 -55h-347v133h431v-1823h-431v133z" />
<glyph unicode="^" horiz-adv-x="1239" d="M102 276l443 738h147l445 -738h-158l-412 682h103l-410 -682h-158z" />
<glyph unicode="_" horiz-adv-x="1024" d="M20 0h984v-143h-984v143z" />
<glyph unicode="`" horiz-adv-x="468" d="M86 1444l150 -453h126l-149 453h-127z" />
<glyph unicode="a" horiz-adv-x="847" d="M82 248q0 83 47.5 145t120 91.5t156.5 29.5q131 0 225 -73t94 -193t-94.5 -194t-224.5 -74q-84 0 -156.5 30t-120 92.5t-47.5 145.5zM117 594q0 121 85 192.5t218 71.5q139 0 223 -81t84 -218v-344q0 -40 32.5 -93.5t65.5 -87.5l33 -34h-164q-56 44 -76 113l-24 41v374 q0 104 -43.5 157.5t-140.5 53.5q-69 0 -116.5 -42t-47.5 -103h-129zM215 248q0 -75 54 -112.5t137 -37.5q96 0 156.5 37.5t60.5 112.5q0 74 -60.5 110.5t-156.5 36.5q-83 0 -137 -36.5t-54 -110.5z" />
<glyph unicode="b" horiz-adv-x="905" d="M102 0v1444h134v-1444h-134zM158 418q0 64 9.5 124.5t32.5 118.5t57 101t86.5 69.5t117.5 26.5q108 0 192.5 -63.5t127 -163t42.5 -213.5t-42.5 -213t-127 -162t-192.5 -63q-81 0 -142 39t-94.5 104t-50 139.5t-16.5 155.5zM236 418q0 -129 61 -220.5t164 -91.5t163 91 t60 221t-60 221.5t-163 91.5t-164 -92t-61 -221z" />
<glyph unicode="c" horiz-adv-x="860" d="M82 418q0 114 43 213.5t128 163t193 63.5q124 0 213.5 -79.5t126.5 -205.5h-143q-27 72 -78 115t-119 43q-103 0 -164 -92t-61 -221t61 -220.5t164 -91.5q70 0 121.5 43.5t77.5 116.5h143q-37 -127 -126.5 -206.5t-215.5 -79.5q-108 0 -193 63t-128 162t-43 213z" />
<glyph unicode="d" horiz-adv-x="925" d="M82 418q0 -114 42.5 -213t127 -162t192.5 -63q81 0 142 39t95 104t50.5 139.5t16.5 155.5q0 64 -9.5 124.5t-32.5 118.5t-57.5 101t-87 69.5t-117.5 26.5q-108 0 -192.5 -63.5t-127 -163t-42.5 -213.5zM221 418q0 130 60 221.5t163 91.5t164.5 -92t61.5 -221 t-61.5 -220.5t-164.5 -91.5t-163 91t-60 221zM670 0h133v1444h-133v-1444z" />
<glyph unicode="e" d="M82 418q0 114 43 213.5t128 163t193 63.5t192.5 -63.5t127.5 -163t43 -213.5v-19h-651v119h536l-22 -100q0 129 -61.5 222t-164.5 93t-165 -93t-62 -222t62 -221.5t165 -92.5q70 0 128.5 45.5t87.5 116.5h139q-36 -125 -132 -205.5t-223 -80.5q-108 0 -193 63t-128 162 t-43 213z" />
<glyph unicode="f" horiz-adv-x="645" d="M61 715h492v123h-492v-123zM236 0h133v1198q0 64 32 103.5t91 39.5q122 0 122 -145v-41h134v53q0 116 -70 186t-186 70q-121 0 -188.5 -75.5t-67.5 -200.5v-1188z" />
<glyph unicode="g" horiz-adv-x="839" d="M72 -299q0 118 74.5 200t191.5 115l2 -79q-76 28 -121 69t-45 111q0 88 70 137t170 49l-78 -78q-97 31 -157 115.5t-60 194.5q0 125 92 224t223 99q134 0 226 -98.5t92 -224.5q0 -137 -90.5 -230.5t-227.5 -93.5q-115 0 -115 -84q0 -46 30.5 -72t84.5 -26 q150 0 257.5 -92.5t107.5 -235.5t-107.5 -234.5t-257.5 -91.5t-256 91.5t-106 234.5zM205 -299q0 -89 66.5 -143t162.5 -54t164 54t68 143q0 90 -68.5 147.5t-163.5 57.5t-162 -57.5t-67 -147.5zM248 535q0 -95 52 -150t134 -55q84 0 136.5 55t52.5 150q0 94 -53 149 t-136 55q-81 0 -133.5 -55.5t-52.5 -148.5zM350 793l150 452h127l-150 -452h-127z" />
<glyph unicode="h" horiz-adv-x="839" d="M102 0v1444h134v-1444h-134zM164 487q0 159 74.5 265t201.5 106q138 0 217.5 -80.5t79.5 -218.5v-559h-133v528q0 97 -42.5 152t-131.5 55q-88 0 -141 -74.5t-53 -173.5h-72z" />
<glyph unicode="i" horiz-adv-x="358" d="M102 1094v153h154v-153h-154zM113 0v838h133v-838h-133z" />
<glyph unicode="j" horiz-adv-x="358" d="M-266 -315v-54q0 -115 70 -185.5t186 -70.5q121 0 188.5 76t67.5 201v1186h-133v-1196q0 -64 -32 -104t-91 -40q-61 0 -92 38t-31 108v41h-133zM102 1094v153h154v-153h-154z" />
<glyph unicode="k" horiz-adv-x="813" d="M102 0v1444h134v-1444h-134zM182 389v78l393 371h187l-490 -465l-10 127l531 -500h-199z" />
<glyph unicode="l" horiz-adv-x="358" d="M113 0v1444h133v-1444h-133z" />
<glyph unicode="m" horiz-adv-x="1361" d="M123 0v838h133v-838h-133zM184 487q0 159 75 265t202 106q138 0 217.5 -80.5t79.5 -218.5v-559h-133v528q0 97 -42.5 152t-131.5 55q-88 0 -141.5 -75t-53.5 -173h-72zM666 487q0 94 35 177.5t104.5 138.5t157.5 55q138 0 217.5 -80.5t79.5 -218.5v-559h-134v528 q0 97 -42.5 152t-131.5 55q-88 0 -141 -74.5t-53 -173.5h-92z" />
<glyph unicode="n" horiz-adv-x="860" d="M123 0v838h133v-838h-133zM184 487q0 159 75 265t202 106q138 0 217.5 -80.5t79.5 -218.5v-559h-133v528q0 97 -42.5 152t-131.5 55q-88 0 -141.5 -75t-53.5 -173h-72z" />
<glyph unicode="o" d="M82 418q0 -114 43 -213t128 -162t193 -63t192.5 63t127.5 162t43 213t-43 213.5t-127.5 163t-192.5 63.5t-193 -63.5t-128 -163t-43 -213.5zM221 418q0 129 61 221t164 92t163.5 -91.5t60.5 -221.5q0 -129 -60.5 -220.5t-163.5 -91.5t-164 91.5t-61 220.5z" />
<glyph unicode="p" horiz-adv-x="925" d="M123 -604v1442h133v-1442h-133zM178 418q0 64 9.5 124.5t32.5 118.5t57 101t86.5 69.5t117.5 26.5q108 0 192.5 -63.5t127.5 -163t43 -213.5t-43 -213t-127.5 -162t-192.5 -63q-81 0 -142 39t-94.5 104t-50 139.5t-16.5 155.5zM256 418q0 -129 61 -220.5t164 -91.5 t163.5 91.5t60.5 220.5q0 130 -60.5 221.5t-163.5 91.5t-164 -92t-61 -221z" />
<glyph unicode="q" horiz-adv-x="925" d="M82 418q0 -114 42.5 -213t127 -162t192.5 -63q81 0 142 39t95 104t50.5 139.5t16.5 155.5q0 64 -9.5 124.5t-32.5 118.5t-57.5 101t-87 69.5t-117.5 26.5q-108 0 -192.5 -63.5t-127 -163t-42.5 -213.5zM221 418q0 130 60 221.5t163 91.5t164.5 -92t61.5 -221 t-61.5 -220.5t-164.5 -91.5t-163 91t-60 221zM670 -604h133v1442h-133v-1442z" />
<glyph unicode="r" horiz-adv-x="696" d="M123 0v838h133v-838h-133zM205 582q0 113 61 194.5t164 81.5q100 0 162.5 -70.5t62.5 -185.5v-33h-133v21q0 69 -29 107t-83 38q-44 0 -75.5 -20t-48 -52.5t-23.5 -65.5t-7 -67z" />
<glyph unicode="s" horiz-adv-x="782" d="M82 260v6h133v-6q0 -73 54.5 -117.5t127.5 -44.5q75 0 130 37.5t55 102.5q0 38 -36 63.5t-90.5 38t-117.5 32t-117.5 43.5t-90.5 74.5t-36 122.5q0 118 86.5 182t216.5 64q124 0 209 -73t94 -191h-135q-12 62 -54.5 103.5t-113.5 41.5q-77 0 -121.5 -33t-44.5 -94 q0 -38 36 -63.5t90.5 -38t117.5 -32t117.5 -43.5t90.5 -74.5t36 -122.5q0 -123 -92.5 -190.5t-229.5 -67.5q-133 0 -224 77t-91 203z" />
<glyph unicode="t" horiz-adv-x="757" d="M61 715v123h502v-123h-502zM225 238v999h133v-967q0 -83 22.5 -125.5t80.5 -42.5t80 42.5t22 125.5h133v-32q0 -118 -61 -188t-174 -70t-174.5 70t-61.5 188z" />
<glyph unicode="u" horiz-adv-x="860" d="M102 279v559h134v-529q0 -97 42.5 -152t131.5 -55q88 0 141 74.5t53 173.5h72q0 -159 -75 -264.5t-202 -105.5q-138 0 -217.5 80.5t-79.5 218.5zM604 0v838h133v-838h-133z" />
<glyph unicode="v" horiz-adv-x="790" d="M41 838l287 -838h135l287 838h-146l-242 -756h66l-242 756h-145z" />
<glyph unicode="w" horiz-adv-x="1353" d="M41 838l287 -838h135l223 657h-18l223 -657h135l287 838h-146l-241 -756h65l-246 756h-137l-246 -756h66l-242 756h-145z" />
<glyph unicode="x" horiz-adv-x="833" d="M41 0l580 838h153l-581 -838h-152zM57 838h154l582 -838h-152z" />
<glyph unicode="y" horiz-adv-x="757" d="M-61 -315v-31q0 -126 67.5 -202.5t188.5 -76.5q119 0 187.5 85.5t68.5 213.5v387h-134v-356q0 -203 -122 -203q-71 0 -97 48t-26 135h-133zM8 838l309 -838h134l286 838h-145l-242 -756h72l-264 756h-150z" />
<glyph unicode="z" horiz-adv-x="757" d="M82 0v127l520 651l37 -67h-537v127h615v-127l-520 -641l-47 57h567v-127h-635z" />
<glyph unicode="{" horiz-adv-x="847" d="M102 590v143h78q93 0 155 67t62 173v217q0 163 104.5 275t264.5 112v-133q-104 0 -160.5 -71t-56.5 -183v-217q0 -150 -113 -258.5t-256 -108.5v111q143 0 256 -108.5t113 -258.5v-217q0 -112 56.5 -183t160.5 -71v-133q-160 0 -264.5 112t-104.5 275v217q0 106 -62 173 t-155 67h-78z" />
<glyph unicode="|" horiz-adv-x="389" d="M123 -143v1607h143v-1607h-143z" />
<glyph unicode="}" horiz-adv-x="847" d="M82 -121v-133q160 0 264.5 112t104.5 275v217q0 106 62 173t155 67h77v143h-77q-93 0 -155 67t-62 173v217q0 163 -104.5 275t-264.5 112v-133q104 0 160.5 -71t56.5 -183v-217q0 -150 113 -258.5t256 -108.5v111q-143 0 -256 -108.5t-113 -258.5v-217q0 -112 -56.5 -183 t-160.5 -71z" />
<glyph unicode="~" horiz-adv-x="1044" d="M123 395h125q0 60 40.5 103t98.5 43q31 0 58 -15t50 -37t48.5 -44t65 -37t87.5 -15q109 0 188 79.5t79 189.5h-125q0 -60 -41.5 -102t-100.5 -42q-31 0 -58 15t-50 37t-48.5 44t-65 37t-87.5 15q-108 0 -186 -80t-78 -191z" />
<glyph unicode="&#xa1;" horiz-adv-x="348" d="M115 680h159v160h-159v-160zM123 532v-1136h143v1136h-143z" />
<glyph unicode="&#xa2;" horiz-adv-x="860" d="M82 418q0 114 43 213.5t128 163t193 63.5q124 0 213.5 -79.5t126.5 -205.5h-143q-27 72 -78 115t-119 43q-103 0 -164 -92t-61 -221t61 -220.5t164 -91.5q70 0 121.5 43.5t77.5 116.5h143q-37 -127 -126.5 -206.5t-215.5 -79.5q-108 0 -193 63t-128 162t-43 213zM379 41 h135v-246h-135v246zM379 797v245h135v-245h-135z" />
<glyph unicode="&#xa3;" horiz-adv-x="1163" d="M102 649v144h574v-144h-574zM256 0v1030q0 189 108 311.5t289 122.5q90 0 166 -36t126 -96.5t78 -138.5t28 -163v-20h-144v20q0 129 -67.5 215t-186.5 86t-186.5 -86t-67.5 -215v-1030h-143zM274 0v133h664v-133h-664z" />
<glyph unicode="&#xa5;" horiz-adv-x="1097" d="M20 1444h166l385 -709h-49l385 709h166l-526 -932zM203 362v123h692v-123h-692zM203 649v123h692v-123h-692zM473 0v670h150v-670h-150z" />
<glyph unicode="&#xa7;" horiz-adv-x="1036" d="M123 672q0 162 108 276l80 -135q-37 -61 -37 -141q0 -111 73.5 -190t180.5 -79q169 0 287.5 -116.5t118.5 -284.5t-118.5 -284.5t-287.5 -116.5q-168 0 -282.5 116t-114.5 285v37h143v-41q0 -108 74 -186t180 -78q107 0 180.5 78.5t73.5 189.5t-73.5 189.5t-180.5 78.5 q-169 0 -287 117t-118 285zM123 1063q0 168 118 284.5t287 116.5q168 0 283 -116t115 -285v-37h-144v41q0 108 -74 186t-180 78q-107 0 -180.5 -78.5t-73.5 -189.5t73.5 -189.5t180.5 -78.5q169 0 287.5 -117t118.5 -285q0 -161 -109 -276l-80 135q37 61 37 141 q0 111 -73.5 190t-180.5 79q-169 0 -287 116.5t-118 284.5z" />
<glyph unicode="&#xa8;" horiz-adv-x="651" d="M98 1094v168h168v-168h-168zM385 1094v168h168v-168h-168z" />
<glyph unicode="&#xa9;" horiz-adv-x="1837" d="M102 647q0 -165 65 -316t174.5 -260.5t260.5 -174t316 -64.5q222 0 410 109.5t297.5 297t109.5 408.5q0 111 -29.5 217t-82 195.5t-128 165t-165 128t-195.5 82t-217 29.5q-165 0 -316 -64.5t-260.5 -174t-174.5 -261t-65 -317.5zM244 647q0 191 87 348t242 247.5 t345 90.5t344.5 -90.5t241.5 -247.5t87 -348t-87 -347.5t-241.5 -246.5t-344.5 -90t-345 90t-242 246.5t-87 347.5zM561 647q0 114 43.5 213.5t128.5 163t193 63.5q124 0 213.5 -79t126.5 -205h-140q-28 72 -80 117t-120 45q-103 0 -166.5 -94.5t-63.5 -223.5t63.5 -222 t166.5 -93q70 0 123 45.5t79 118.5h140q-37 -127 -126.5 -207t-215.5 -80q-108 0 -193 63t-128.5 162t-43.5 213z" />
<glyph unicode="&#xaa;" horiz-adv-x="847" d="M82 1024q0 -114 42.5 -213t127 -162t192.5 -63q81 0 142 39t95 104t50.5 139.5t16.5 155.5q0 64 -9.5 124.5t-32.5 118.5t-57.5 101t-87 69.5t-117.5 26.5q-108 0 -192.5 -63.5t-127 -163t-42.5 -213.5zM221 1024q0 130 60 221.5t163 91.5t164.5 -92t61.5 -221 t-61.5 -220t-164.5 -91t-163 90.5t-60 220.5zM670 606h133v838h-133v-838z" />
<glyph unicode="&#xab;" horiz-adv-x="1024" d="M102 553v147l410 -294v-148zM102 553v147l410 297v-147zM512 553v147l410 -294v-148zM512 553v147l410 297v-147z" />
<glyph unicode="&#xac;" horiz-adv-x="993" d="M102 516v125h789v-412h-143v359l69 -72h-715z" />
<glyph unicode="&#xad;" horiz-adv-x="655" d="M41 465v143h573v-143h-573z" />
<glyph unicode="&#xae;" horiz-adv-x="1837" d="M102 647q0 -170 63 -321.5t171.5 -259.5t260 -171t321.5 -63q227 0 414 107t294 294t107 414t-107 414.5t-294 295t-414 107.5q-170 0 -321.5 -63.5t-260 -172t-171.5 -260t-63 -321.5zM244 647q0 192 86.5 349t241.5 247t346 90t345.5 -90t241 -247t86.5 -349 t-86.5 -348.5t-241 -246t-345.5 -89.5t-345.5 89.5t-241.5 246t-87 348.5zM653 223v864h336q123 0 201 -69t78 -176q0 -105 -84.5 -176.5t-194.5 -71.5h-270v117h231q178 0 178 131q0 129 -178 129h-233l59 53v-801h-123zM891 623h141l230 -400h-144z" />
<glyph unicode="&#xaf;" horiz-adv-x="727" d="M102 1114v125h523v-125h-523z" />
<glyph unicode="&#xb0;" horiz-adv-x="686" d="M102 1223q0 -100 70 -170t170 -70t171 70t71 170t-71 170.5t-171 70.5t-170 -70.5t-70 -170.5zM215 1223q0 55 37 95t90 40t91 -40t38 -95q0 -54 -37.5 -93.5t-91.5 -39.5q-53 0 -90 39t-37 94z" />
<glyph unicode="&#xb1;" horiz-adv-x="993" d="M102 0v125h789v-125h-789zM102 578v124h789v-124h-789zM430 205v870h133v-870h-133z" />
<glyph unicode="&#xb4;" horiz-adv-x="468" d="M106 991l150 453h127l-150 -453h-127z" />
<glyph unicode="&#xb6;" horiz-adv-x="1130" d="M61 1047q0 118 64 210.5t163.5 139.5t213.5 47h608v-133h-608q-126 0 -206.5 -71.5t-80.5 -192.5t81 -193t206 -72h397v-133h-397q-114 0 -213.5 47t-163.5 140t-64 211zM541 0v1372h135v-1372h-135zM827 0v1372h136v-1372h-136z" />
<glyph unicode="&#xb7;" horiz-adv-x="364" d="M98 635v164h168v-164h-168z" />
<glyph unicode="&#xb8;" horiz-adv-x="460" d="M92 -391l150 452h127l-150 -452h-127z" />
<glyph unicode="&#xba;" d="M82 319h727v144h-727v-144zM82 1024q0 -114 43 -213t128 -162t193 -63t192.5 63t127.5 162t43 213t-43 213.5t-127.5 163t-192.5 63.5t-193 -63.5t-128 -163t-43 -213.5zM221 1024q0 129 61 221t164 92t163.5 -91.5t60.5 -221.5q0 -129 -60.5 -220t-163.5 -91t-164 91 t-61 220z" />
<glyph unicode="&#xbb;" horiz-adv-x="1024" d="M102 258l410 295v147l-410 -294v-148zM102 850l410 -297v147l-410 297v-147zM512 258l410 295v147l-410 -294v-148zM512 850l410 -297v147l-410 297v-147z" />
<glyph unicode="&#xbf;" horiz-adv-x="1007" d="M102 -223q0 121 91 239l200 252q43 54 43 142v122h148v-122q0 -126 -88 -240l-201 -256q-41 -52 -41 -141q0 -108 74 -186.5t180 -78.5t180 78.5t74 186.5v41h143v-37q0 -169 -114.5 -285.5t-282.5 -116.5q-169 0 -287.5 117t-118.5 285zM430 680v160h160v-160h-160z" />
<glyph unicode="&#xc0;" horiz-adv-x="1241" d="M61 0l478 1444h163l478 -1444h-148l-436 1346h49l-436 -1346h-148zM352 510v135h553v-135h-553zM461 1772l88 -256h125l-88 256h-125z" />
<glyph unicode="&#xc1;" horiz-adv-x="1241" d="M61 0l478 1444h163l478 -1444h-148l-436 1346h49l-436 -1346h-148zM352 510v135h553v-135h-553zM557 1516l88 256h125l-88 -256h-125z" />
<glyph unicode="&#xc2;" horiz-adv-x="1241" d="M61 0l478 1444h163l478 -1444h-148l-436 1346h49l-436 -1346h-148zM352 510v135h553v-135h-553zM385 1516l178 256h115l178 -256h-137l-125 198h51l-125 -198h-135z" />
<glyph unicode="&#xc3;" horiz-adv-x="1241" d="M61 0l478 1444h163l478 -1444h-148l-436 1346h49l-436 -1346h-148zM338 1626l80 -78q38 54 94 54q28 0 97.5 -36t117.5 -36q95 0 174 94l-80 78q-37 -53 -94 -53q-30 0 -99.5 35.5t-117.5 35.5q-93 0 -172 -94zM352 510v135h553v-135h-553z" />
<glyph unicode="&#xc4;" horiz-adv-x="1241" d="M61 0l478 1444h163l478 -1444h-148l-436 1346h49l-436 -1346h-148zM352 510v135h553v-135h-553zM397 1556v160h160v-160h-160zM684 1556v160h160v-160h-160z" />
<glyph unicode="&#xc5;" horiz-adv-x="1241" d="M61 0l478 1444h163l478 -1444h-148l-436 1346h49l-436 -1346h-148zM352 510v135h553v-135h-553zM420 1536q0 84 58.5 142.5t142.5 58.5q83 0 141.5 -59t58.5 -142q0 -84 -58.5 -142.5t-141.5 -58.5q-85 0 -143 58t-58 143zM518 1536q0 -43 30.5 -74.5t72.5 -31.5 q41 0 71.5 31.5t30.5 74.5q0 42 -30.5 74t-71.5 32q-42 0 -72.5 -32t-30.5 -74z" />
<glyph unicode="&#xc6;" horiz-adv-x="1708" d="M0 0l838 1444l114 -78l-792 -1366h-160zM393 510v135h471v-135h-471zM838 0v1444h788v-133h-670l25 20v-1216l-25 18h670v-133h-788zM922 653v135h489v-135h-489z" />
<glyph unicode="&#xc7;" horiz-adv-x="1249" d="M82 721q0 112 23 219t70 202t113 166.5t159 113.5t200 42q193 0 326 -124.5t194 -325.5h-159q-23 64 -55 118.5t-76 100.5t-103 72t-127 26q-80 0 -148.5 -37t-116 -98.5t-81 -141t-49.5 -164.5t-16 -169t16 -169t49.5 -164t81 -140t116 -98t148.5 -37q68 0 127 26 t103 72t76 100.5t55 118.5h159q-61 -201 -194 -325.5t-326 -124.5q-107 0 -200 41.5t-159 113t-113 166t-70 201.5t-23 219zM475 -391l150 452h127l-150 -452h-127z" />
<glyph unicode="&#xc8;" horiz-adv-x="983" d="M133 0v1444h789v-133h-670l24 20v-1216l-24 18h670v-133h-789zM217 653v135h490v-135h-490zM387 1772l88 -256h125l-88 256h-125z" />
<glyph unicode="&#xc9;" horiz-adv-x="983" d="M133 0v1444h789v-133h-670l24 20v-1216l-24 18h670v-133h-789zM217 653v135h490v-135h-490zM430 1516l88 256h125l-88 -256h-125z" />
<glyph unicode="&#xca;" horiz-adv-x="983" d="M133 0v1444h789v-133h-670l24 20v-1216l-24 18h670v-133h-789zM217 653v135h490v-135h-490zM270 1516l179 256h114l178 -256h-137l-125 198h51l-124 -198h-136z" />
<glyph unicode="&#xcb;" horiz-adv-x="983" d="M133 0v1444h789v-133h-670l24 20v-1216l-24 18h670v-133h-789zM217 653v135h490v-135h-490zM303 1556v160h160v-160h-160zM590 1556v160h160v-160h-160z" />
<glyph unicode="&#xcc;" horiz-adv-x="409" d="M55 1772l88 -256h125l-88 256h-125zM133 0v1444h143v-1444h-143z" />
<glyph unicode="&#xcd;" horiz-adv-x="409" d="M109 1516l88 256h125l-89 -256h-124zM133 0v1444h143v-1444h-143z" />
<glyph unicode="&#xce;" horiz-adv-x="409" d="M-31 1516l178 256h115l178 -256h-137l-125 198h51l-125 -198h-135zM133 0v1444h143v-1444h-143z" />
<glyph unicode="&#xcf;" horiz-adv-x="409" d="M-18 1556v160h159v-160h-159zM133 0v1444h143v-1444h-143zM268 1556v160h160v-160h-160z" />
<glyph unicode="&#xd0;" horiz-adv-x="1302" d="M41 653h532v135h-532v-135zM205 0h465q126 0 232 63.5t174.5 167t106.5 231t38 259.5q0 106 -22.5 209t-69 196t-110.5 164t-154.5 112.5t-194.5 41.5h-465v-1444zM324 133l24 -18v1216l-24 -20h325q83 0 153 -34t118.5 -91.5t82 -134t49 -160.5t15.5 -172 q0 -102 -28.5 -204.5t-80 -188t-132.5 -139.5t-177 -54h-325z" />
<glyph unicode="&#xd1;" horiz-adv-x="1187" d="M133 0v1444h184l652 -1311h-54v1311h140v-1444h-185l-651 1311h53v-1311h-139zM311 1626l80 -78q38 54 94 54q28 0 97.5 -36t117.5 -36q95 0 174 94l-79 78q-37 -53 -95 -53q-30 0 -99.5 35.5t-117.5 35.5q-93 0 -172 -94z" />
<glyph unicode="&#xd2;" horiz-adv-x="1290" d="M82 721q0 112 23 219t70 202t113 166.5t159 113.5t200 42t199.5 -42t158 -113.5t112 -166.5t69 -202t22.5 -219t-22.5 -219t-69 -201.5t-112 -166t-158 -113t-199.5 -41.5t-200 41.5t-159 113t-113 166t-70 201.5t-23 219zM236 721q0 -84 16 -169t49.5 -164t81 -140 t116 -98t148.5 -37t148 37t115 97.5t80.5 140t49 164t15.5 169.5t-15.5 169.5t-49 164.5t-80.5 141t-115 98t-148 37t-148.5 -37t-116 -98.5t-81 -141t-49.5 -164.5t-16 -169zM500 1772l88 -256h125l-88 256h-125z" />
<glyph unicode="&#xd3;" horiz-adv-x="1290" d="M82 721q0 112 23 219t70 202t113 166.5t159 113.5t200 42t199.5 -42t158 -113.5t112 -166.5t69 -202t22.5 -219t-22.5 -219t-69 -201.5t-112 -166t-158 -113t-199.5 -41.5t-200 41.5t-159 113t-113 166t-70 201.5t-23 219zM236 721q0 -84 16 -169t49.5 -164t81 -140 t116 -98t148.5 -37t148 37t115 97.5t80.5 140t49 164t15.5 169.5t-15.5 169.5t-49 164.5t-80.5 141t-115 98t-148 37t-148.5 -37t-116 -98.5t-81 -141t-49.5 -164.5t-16 -169zM569 1516l88 256h125l-88 -256h-125z" />
<glyph unicode="&#xd4;" horiz-adv-x="1290" d="M82 721q0 112 23 219t70 202t113 166.5t159 113.5t200 42t199.5 -42t158 -113.5t112 -166.5t69 -202t22.5 -219t-22.5 -219t-69 -201.5t-112 -166t-158 -113t-199.5 -41.5t-200 41.5t-159 113t-113 166t-70 201.5t-23 219zM236 721q0 -84 16 -169t49.5 -164t81 -140 t116 -98t148.5 -37t148 37t115 97.5t80.5 140t49 164t15.5 169.5t-15.5 169.5t-49 164.5t-80.5 141t-115 98t-148 37t-148.5 -37t-116 -98.5t-81 -141t-49.5 -164.5t-16 -169zM410 1516l178 256h114l179 -256h-138l-125 198h52l-125 -198h-135z" />
<glyph unicode="&#xd5;" horiz-adv-x="1290" d="M82 721q0 112 23 219t70 202t113 166.5t159 113.5t200 42t199.5 -42t158 -113.5t112 -166.5t69 -202t22.5 -219t-22.5 -219t-69 -201.5t-112 -166t-158 -113t-199.5 -41.5t-200 41.5t-159 113t-113 166t-70 201.5t-23 219zM236 721q0 -84 16 -169t49.5 -164t81 -140 t116 -98t148.5 -37t148 37t115 97.5t80.5 140t49 164t15.5 169.5t-15.5 169.5t-49 164.5t-80.5 141t-115 98t-148 37t-148.5 -37t-116 -98.5t-81 -141t-49.5 -164.5t-16 -169zM362 1626l80 -78q38 54 95 54q28 0 97.5 -36t117.5 -36q95 0 174 94l-80 78q-37 -53 -94 -53 q-30 0 -99.5 35.5t-117.5 35.5q-94 0 -173 -94z" />
<glyph unicode="&#xd6;" horiz-adv-x="1290" d="M82 721q0 112 23 219t70 202t113 166.5t159 113.5t200 42t199.5 -42t158 -113.5t112 -166.5t69 -202t22.5 -219t-22.5 -219t-69 -201.5t-112 -166t-158 -113t-199.5 -41.5t-200 41.5t-159 113t-113 166t-70 201.5t-23 219zM236 721q0 -84 16 -169t49.5 -164t81 -140 t116 -98t148.5 -37t148 37t115 97.5t80.5 140t49 164t15.5 169.5t-15.5 169.5t-49 164.5t-80.5 141t-115 98t-148 37t-148.5 -37t-116 -98.5t-81 -141t-49.5 -164.5t-16 -169zM428 1556v160h160v-160h-160zM715 1556v160h159v-160h-159z" />
<glyph unicode="&#xd7;" horiz-adv-x="915" d="M102 317l617 617l94 -94l-616 -617zM102 840l95 94l616 -617l-94 -94z" />
<glyph unicode="&#xd8;" horiz-adv-x="1290" d="M82 0l962 1444h164l-962 -1444h-164zM82 721q0 112 23 219t70 202t113 166.5t159 113.5t200 42t199.5 -42t158 -113.5t112 -166.5t69 -202t22.5 -219t-22.5 -219t-69 -201.5t-112 -166t-158 -113t-199.5 -41.5t-200 41.5t-159 113t-113 166t-70 201.5t-23 219zM236 721 q0 -84 16 -169t49.5 -164t81 -140t116 -98t148.5 -37t148 37t115 97.5t80.5 140t49 164t15.5 169.5t-15.5 169.5t-49 164.5t-80.5 141t-115 98t-148 37t-148.5 -37t-116 -98.5t-81 -141t-49.5 -164.5t-16 -169z" />
<glyph unicode="&#xd9;" horiz-adv-x="1085" d="M92 430v1014h144v-1014q0 -131 88.5 -224t218.5 -93t218.5 93t88.5 224v1014h143v-1014q0 -196 -131 -323t-319 -127t-319.5 127t-131.5 323zM365 1772l88 -256h125l-89 256h-124z" />
<glyph unicode="&#xda;" horiz-adv-x="1085" d="M92 430v1014h144v-1014q0 -131 88.5 -224t218.5 -93t218.5 93t88.5 224v1014h143v-1014q0 -196 -131 -323t-319 -127t-319.5 127t-131.5 323zM467 1516l88 256h125l-88 -256h-125z" />
<glyph unicode="&#xdb;" horiz-adv-x="1085" d="M92 430v1014h144v-1014q0 -131 88.5 -224t218.5 -93t218.5 93t88.5 224v1014h143v-1014q0 -196 -131 -323t-319 -127t-319.5 127t-131.5 323zM307 1516l178 256h115l178 -256h-137l-125 198h51l-125 -198h-135z" />
<glyph unicode="&#xdc;" horiz-adv-x="1085" d="M92 430v1014h144v-1014q0 -131 88.5 -224t218.5 -93t218.5 93t88.5 224v1014h143v-1014q0 -196 -131 -323t-319 -127t-319.5 127t-131.5 323zM322 1556v160h159v-160h-159zM608 1556v160h160v-160h-160z" />
<glyph unicode="&#xdd;" horiz-adv-x="1097" d="M20 1444h166l385 -709h-49l385 709h166l-526 -932zM449 1516l88 256h125l-89 -256h-124zM473 0v670h150v-670h-150z" />
<glyph unicode="&#xdf;" horiz-adv-x="870" d="M102 0h134v1104q0 105 43.5 169t134.5 64q96 0 146 -58t50 -161q0 -99 -59.5 -159t-140.5 -60h-41v-127h34q78 0 135.5 -50t84 -124.5t26.5 -159.5q0 -84 -25.5 -158.5t-78.5 -124t-121 -49.5v-126q108 0 193 68t128 171.5t43 218.5q0 114 -43 213.5t-128 163.5t-193 64 v-62q160 0 242 79.5t82 221.5q0 143 -92.5 244.5t-241.5 101.5q-98 0 -171 -53.5t-107 -134.5t-34 -176v-1100z" />
<glyph unicode="&#xe0;" horiz-adv-x="847" d="M82 248q0 83 47.5 145t120 91.5t156.5 29.5q131 0 225 -73t94 -193t-94.5 -194t-224.5 -74q-84 0 -156.5 30t-120 92.5t-47.5 145.5zM117 594q0 121 85 192.5t218 71.5q139 0 223 -81t84 -218v-344q0 -40 32.5 -93.5t65.5 -87.5l33 -34h-164q-56 44 -76 113l-24 41v374 q0 104 -43.5 157.5t-140.5 53.5q-69 0 -116.5 -42t-47.5 -103h-129zM215 248q0 -75 54 -112.5t137 -37.5q96 0 156.5 37.5t60.5 112.5q0 74 -60.5 110.5t-156.5 36.5q-83 0 -137 -36.5t-54 -110.5zM240 1444l149 -453h127l-149 453h-127z" />
<glyph unicode="&#xe1;" horiz-adv-x="847" d="M82 248q0 83 47.5 145t120 91.5t156.5 29.5q131 0 225 -73t94 -193t-94.5 -194t-224.5 -74q-84 0 -156.5 30t-120 92.5t-47.5 145.5zM117 594q0 121 85 192.5t218 71.5q139 0 223 -81t84 -218v-344q0 -40 32.5 -93.5t65.5 -87.5l33 -34h-164q-56 44 -76 113l-24 41v374 q0 104 -43.5 157.5t-140.5 53.5q-69 0 -116.5 -42t-47.5 -103h-129zM215 248q0 -75 54 -112.5t137 -37.5q96 0 156.5 37.5t60.5 112.5q0 74 -60.5 110.5t-156.5 36.5q-83 0 -137 -36.5t-54 -110.5zM377 991l149 453h127l-149 -453h-127z" />
<glyph unicode="&#xe2;" horiz-adv-x="847" d="M82 248q0 83 47.5 145t120 91.5t156.5 29.5q131 0 225 -73t94 -193t-94.5 -194t-224.5 -74q-84 0 -156.5 30t-120 92.5t-47.5 145.5zM117 594q0 121 85 192.5t218 71.5q139 0 223 -81t84 -218v-344q0 -40 32.5 -93.5t65.5 -87.5l33 -34h-164q-56 44 -76 113l-24 41v374 q0 104 -43.5 157.5t-140.5 53.5q-69 0 -116.5 -42t-47.5 -103h-129zM195 991l157 453h115l158 -453h-119l-123 377h51l-123 -377h-116zM215 248q0 -75 54 -112.5t137 -37.5q96 0 156.5 37.5t60.5 112.5q0 74 -60.5 110.5t-156.5 36.5q-83 0 -137 -36.5t-54 -110.5z" />
<glyph unicode="&#xe3;" horiz-adv-x="847" d="M82 248q0 83 47.5 145t120 91.5t156.5 29.5q131 0 225 -73t94 -193t-94.5 -194t-224.5 -74q-84 0 -156.5 30t-120 92.5t-47.5 145.5zM117 594q0 121 85 192.5t218 71.5q139 0 223 -81t84 -218v-344q0 -40 32.5 -93.5t65.5 -87.5l33 -34h-164q-56 44 -76 113l-24 41v374 q0 104 -43.5 157.5t-140.5 53.5q-69 0 -116.5 -42t-47.5 -103h-129zM145 1196l80 -98q37 53 94 53q28 0 98 -36t118 -36q94 0 174 95l-80 98q-37 -53 -94 -53q-30 0 -100 35.5t-118 35.5q-93 0 -172 -94zM215 248q0 -75 54 -112.5t137 -37.5q96 0 156.5 37.5t60.5 112.5 q0 74 -60.5 110.5t-156.5 36.5q-83 0 -137 -36.5t-54 -110.5z" />
<glyph unicode="&#xe4;" horiz-adv-x="847" d="M82 248q0 83 47.5 145t120 91.5t156.5 29.5q131 0 225 -73t94 -193t-94.5 -194t-224.5 -74q-84 0 -156.5 30t-120 92.5t-47.5 145.5zM117 594q0 121 85 192.5t218 71.5q139 0 223 -81t84 -218v-344q0 -40 32.5 -93.5t65.5 -87.5l33 -34h-164q-56 44 -76 113l-24 41v374 q0 104 -43.5 157.5t-140.5 53.5q-69 0 -116.5 -42t-47.5 -103h-129zM160 1094v168h168v-168h-168zM215 248q0 -75 54 -112.5t137 -37.5q96 0 156.5 37.5t60.5 112.5q0 74 -60.5 110.5t-156.5 36.5q-83 0 -137 -36.5t-54 -110.5zM446 1094v168h168v-168h-168z" />
<glyph unicode="&#xe5;" horiz-adv-x="847" d="M82 248q0 83 47.5 145t120 91.5t156.5 29.5q131 0 225 -73t94 -193t-94.5 -194t-224.5 -74q-84 0 -156.5 30t-120 92.5t-47.5 145.5zM117 594q0 121 85 192.5t218 71.5q139 0 223 -81t84 -218v-344q0 -40 32.5 -93.5t65.5 -87.5l33 -34h-164q-56 44 -76 113l-24 41v374 q0 104 -43.5 157.5t-140.5 53.5q-69 0 -116.5 -42t-47.5 -103h-129zM205 1223q0 -91 62 -153t153 -62t154 62t63 153t-63 154t-154 63t-153 -63t-62 -154zM215 248q0 -75 54 -112.5t137 -37.5q96 0 156.5 37.5t60.5 112.5q0 74 -60.5 110.5t-156.5 36.5q-83 0 -137 -36.5 t-54 -110.5zM311 1223q0 46 32 81t77 35t77.5 -35t32.5 -81t-32.5 -80.5t-77.5 -34.5t-77 34.5t-32 80.5z" />
<glyph unicode="&#xe6;" horiz-adv-x="1423" d="M82 248q0 83 47.5 145t120 91.5t156.5 29.5q131 0 225 -73t94 -193h31q-1 -119 -104 -193.5t-246 -74.5q-84 0 -156.5 30t-120 92.5t-47.5 145.5zM117 594q0 121 85 192.5t218 71.5q139 0 223 -81t84 -218v-121h-133v90q0 104 -43.5 157.5t-140.5 53.5q-69 0 -116.5 -42 t-47.5 -103h-129zM215 248q0 -75 54 -112.5t137 -37.5q94 0 150 37t56 113q0 75 -56 111t-150 36q-83 0 -137 -36.5t-54 -110.5zM594 418q0 114 43 213.5t128 163t193 63.5t192.5 -63.5t127.5 -163t43 -213.5v-19h-610v119h495l-22 -100q0 129 -61.5 222t-164.5 93t-165 -93 t-62 -222t62 -221.5t165 -92.5q70 0 128.5 45.5t87.5 116.5h139q-36 -125 -132 -205.5t-223 -80.5q-108 0 -193 63t-128 162t-43 213z" />
<glyph unicode="&#xe7;" horiz-adv-x="860" d="M82 418q0 114 43 213.5t128 163t193 63.5q124 0 213.5 -79.5t126.5 -205.5h-143q-27 72 -78 115t-119 43q-103 0 -164 -92t-61 -221t61 -220.5t164 -91.5q70 0 121.5 43.5t77.5 116.5h143q-37 -127 -126.5 -206.5t-215.5 -79.5q-108 0 -193 63t-128 162t-43 213z M250 -391l149 452h127l-149 -452h-127z" />
<glyph unicode="&#xe8;" d="M82 418q0 114 43 213.5t128 163t193 63.5t192.5 -63.5t127.5 -163t43 -213.5v-19h-651v119h536l-22 -100q0 129 -61.5 222t-164.5 93t-165 -93t-62 -222t62 -221.5t165 -92.5q70 0 128.5 45.5t87.5 116.5h139q-36 -125 -132 -205.5t-223 -80.5q-108 0 -193 63t-128 162 t-43 213zM229 1444l150 -453h127l-150 453h-127z" />
<glyph unicode="&#xe9;" d="M82 418q0 114 43 213.5t128 163t193 63.5t192.5 -63.5t127.5 -163t43 -213.5v-19h-651v119h536l-22 -100q0 129 -61.5 222t-164.5 93t-165 -93t-62 -222t62 -221.5t165 -92.5q70 0 128.5 45.5t87.5 116.5h139q-36 -125 -132 -205.5t-223 -80.5q-108 0 -193 63t-128 162 t-43 213zM379 991l149 453h127l-149 -453h-127z" />
<glyph unicode="&#xea;" d="M82 418q0 114 43 213.5t128 163t193 63.5t192.5 -63.5t127.5 -163t43 -213.5v-19h-651v119h536l-22 -100q0 129 -61.5 222t-164.5 93t-165 -93t-62 -222t62 -221.5t165 -92.5q70 0 128.5 45.5t87.5 116.5h139q-36 -125 -132 -205.5t-223 -80.5q-108 0 -193 63t-128 162 t-43 213zM229 991l158 453h115l157 -453h-118l-123 377h51l-123 -377h-117z" />
<glyph unicode="&#xeb;" d="M82 418q0 114 43 213.5t128 163t193 63.5t192.5 -63.5t127.5 -163t43 -213.5v-19h-651v119h536l-22 -100q0 129 -61.5 222t-164.5 93t-165 -93t-62 -222t62 -221.5t165 -92.5q70 0 128.5 45.5t87.5 116.5h139q-36 -125 -132 -205.5t-223 -80.5q-108 0 -193 63t-128 162 t-43 213zM221 1094v168h168v-168h-168zM508 1094v168h168v-168h-168z" />
<glyph unicode="&#xec;" horiz-adv-x="358" d="M41 1444l149 -453h127l-149 453h-127zM113 0v838h133v-838h-133z" />
<glyph unicode="&#xed;" horiz-adv-x="358" d="M41 991l149 453h127l-149 -453h-127zM113 0v838h133v-838h-133z" />
<glyph unicode="&#xee;" horiz-adv-x="358" d="M-39 991l158 453h114l158 -453h-119l-122 377h51l-123 -377h-117zM113 0v838h133v-838h-133z" />
<glyph unicode="&#xef;" horiz-adv-x="358" d="M-47 1094v168h168v-168h-168zM113 0v838h133v-838h-133zM240 1094v168h168v-168h-168z" />
<glyph unicode="&#xf1;" horiz-adv-x="860" d="M123 0v838h133v-838h-133zM147 1196l80 -98q37 53 95 53q28 0 97.5 -36t117.5 -36q94 0 174 95l-80 98q-37 -53 -94 -53q-30 0 -100 35.5t-118 35.5q-93 0 -172 -94zM184 487q0 159 75 265t202 106q138 0 217.5 -80.5t79.5 -218.5v-559h-133v528q0 97 -42.5 152 t-131.5 55q-88 0 -141.5 -75t-53.5 -173h-72z" />
<glyph unicode="&#xf2;" d="M82 418q0 -114 43 -213t128 -162t193 -63t192.5 63t127.5 162t43 213t-43 213.5t-127.5 163t-192.5 63.5t-193 -63.5t-128 -163t-43 -213.5zM221 418q0 129 61 221t164 92t163.5 -91.5t60.5 -221.5q0 -129 -60.5 -220.5t-163.5 -91.5t-164 91.5t-61 220.5zM246 1444 l149 -453h127l-149 453h-127z" />
<glyph unicode="&#xf3;" d="M82 418q0 -114 43 -213t128 -162t193 -63t192.5 63t127.5 162t43 213t-43 213.5t-127.5 163t-192.5 63.5t-193 -63.5t-128 -163t-43 -213.5zM221 418q0 129 61 221t164 92t163.5 -91.5t60.5 -221.5q0 -129 -60.5 -220.5t-163.5 -91.5t-164 91.5t-61 220.5zM369 991 l149 453h127l-149 -453h-127z" />
<glyph unicode="&#xf4;" d="M82 418q0 -114 43 -213t128 -162t193 -63t192.5 63t127.5 162t43 213t-43 213.5t-127.5 163t-192.5 63.5t-193 -63.5t-128 -163t-43 -213.5zM221 418q0 129 61 221t164 92t163.5 -91.5t60.5 -221.5q0 -129 -60.5 -220.5t-163.5 -91.5t-164 91.5t-61 220.5zM233 991 l158 453h115l158 -453h-119l-123 377h51l-123 -377h-117z" />
<glyph unicode="&#xf5;" d="M82 418q0 -114 43 -213t128 -162t193 -63t192.5 63t127.5 162t43 213t-43 213.5t-127.5 163t-192.5 63.5t-193 -63.5t-128 -163t-43 -213.5zM164 1196l80 -98q37 53 94 53q28 0 97.5 -36t117.5 -36q94 0 174 95l-80 98q-37 -53 -94 -53q-30 0 -99.5 35.5t-117.5 35.5 q-93 0 -172 -94zM221 418q0 129 61 221t164 92t163.5 -91.5t60.5 -221.5q0 -129 -60.5 -220.5t-163.5 -91.5t-164 91.5t-61 220.5z" />
<glyph unicode="&#xf6;" d="M82 418q0 -114 43 -213t128 -162t193 -63t192.5 63t127.5 162t43 213t-43 213.5t-127.5 163t-192.5 63.5t-193 -63.5t-128 -163t-43 -213.5zM217 1094v168h168v-168h-168zM221 418q0 129 61 221t164 92t163.5 -91.5t60.5 -221.5q0 -129 -60.5 -220.5t-163.5 -91.5 t-164 91.5t-61 220.5zM504 1094v168h168v-168h-168z" />
<glyph unicode="&#xf7;" horiz-adv-x="993" d="M102 516v125h789v-125h-789zM412 143v164h168v-164h-168zM412 854v164h168v-164h-168z" />
<glyph unicode="&#xf8;" d="M72 -129h133l614 1096h-133zM82 418q0 -114 43 -213t128 -162t193 -63t192.5 63t127.5 162t43 213t-43 213.5t-127.5 163t-192.5 63.5t-193 -63.5t-128 -163t-43 -213.5zM221 418q0 129 61 221t164 92t163.5 -91.5t60.5 -221.5q0 -129 -60.5 -220.5t-163.5 -91.5 t-164 91.5t-61 220.5z" />
<glyph unicode="&#xf9;" horiz-adv-x="860" d="M102 279v559h134v-529q0 -97 42.5 -152t131.5 -55q88 0 141 74.5t53 173.5h72q0 -159 -75 -264.5t-202 -105.5q-138 0 -217.5 80.5t-79.5 218.5zM225 1444l150 -453h127l-150 453h-127zM604 0v838h133v-838h-133z" />
<glyph unicode="&#xfa;" horiz-adv-x="860" d="M102 279v559h134v-529q0 -97 42.5 -152t131.5 -55q88 0 141 74.5t53 173.5h72q0 -159 -75 -264.5t-202 -105.5q-138 0 -217.5 80.5t-79.5 218.5zM332 991l149 453h127l-149 -453h-127zM604 0v838h133v-838h-133z" />
<glyph unicode="&#xfb;" horiz-adv-x="860" d="M102 279v559h134v-529q0 -97 42.5 -152t131.5 -55q88 0 141 74.5t53 173.5h72q0 -159 -75 -264.5t-202 -105.5q-138 0 -217.5 80.5t-79.5 218.5zM205 991l157 453h115l158 -453h-119l-123 377h51l-122 -377h-117zM604 0v838h133v-838h-133z" />
<glyph unicode="&#xfc;" horiz-adv-x="860" d="M102 279v559h134v-529q0 -97 42.5 -152t131.5 -55q88 0 141 74.5t53 173.5h72q0 -159 -75 -264.5t-202 -105.5q-138 0 -217.5 80.5t-79.5 218.5zM203 1094v168h168v-168h-168zM489 1094v168h168v-168h-168zM604 0v838h133v-838h-133z" />
<glyph unicode="&#xfd;" horiz-adv-x="757" d="M-61 -315v-31q0 -126 67.5 -202.5t188.5 -76.5q119 0 187.5 85.5t68.5 213.5v387h-134v-356q0 -203 -122 -203q-71 0 -97 48t-26 135h-133zM8 838l309 -838h134l286 838h-145l-242 -756h72l-264 756h-150zM313 991l150 453h127l-150 -453h-127z" />
<glyph unicode="&#xff;" horiz-adv-x="757" d="M-61 -315v-31q0 -126 67.5 -202.5t188.5 -76.5q119 0 187.5 85.5t68.5 213.5v387h-134v-356q0 -203 -122 -203q-71 0 -97 48t-26 135h-133zM8 838l309 -838h134l286 838h-145l-242 -756h72l-264 756h-150zM152 1094v168h167v-168h-167zM438 1094v168h168v-168h-168z" />
<glyph unicode="&#x152;" horiz-adv-x="1638" d="M82 721q0 -112 23 -219t70 -201.5t113 -166t159 -113t200 -41.5q82 0 162 26l4 146q-59 -39 -166 -39q-80 0 -148.5 37t-116 98t-81 140t-49.5 164t-16 169t16 169t49.5 164.5t81 141t116 98.5t148.5 37q107 0 166 -39l-4 146q-80 26 -162 26q-107 0 -200 -42 t-159 -113.5t-113 -166.5t-70 -202t-23 -219zM788 0h789v133h-670l25 -18v1216l-25 -20h670v133h-789v-1444zM872 653h490v135h-490v-135z" />
<glyph unicode="&#x153;" horiz-adv-x="1478" d="M82 418q0 114 43 213.5t128 163t193 63.5q119 0 201 -73t123 -193v-352q-41 -117 -124 -188.5t-200 -71.5q-108 0 -193 63t-128 162t-43 213zM221 418q0 -129 61 -220.5t164 -91.5t163.5 91.5t60.5 220.5q0 130 -60.5 221.5t-163.5 91.5t-164 -92t-61 -221zM711 238v354 q41 121 122.5 193.5t200.5 72.5q108 0 192.5 -63.5t127.5 -163t43 -213.5v-19h-602v119h487l-22 -100q0 129 -61.5 222t-164.5 93t-165 -93t-62 -222t62 -221.5t165 -92.5q70 0 128 45.5t87 116.5h140q-36 -125 -132 -205.5t-223 -80.5q-116 0 -198.5 71t-124.5 187z" />
<glyph unicode="&#x178;" horiz-adv-x="1097" d="M20 1444h166l385 -709h-49l385 709h166l-526 -932zM326 1556v160h159v-160h-159zM473 0v670h150v-670h-150zM612 1556v160h160v-160h-160z" />
<glyph unicode="&#x2c6;" horiz-adv-x="716" d="M143 991l158 453h115l157 -453h-118l-123 377h51l-123 -377h-117z" />
<glyph unicode="&#x2dc;" horiz-adv-x="768" d="M102 1196l80 -98q37 53 94 53q28 0 98 -36t118 -36q94 0 174 95l-80 98q-37 -53 -94 -53q-30 0 -100 35.5t-118 35.5q-93 0 -172 -94z" />
<glyph unicode="&#x2000;" horiz-adv-x="886" />
<glyph unicode="&#x2001;" horiz-adv-x="1772" />
<glyph unicode="&#x2002;" horiz-adv-x="886" />
<glyph unicode="&#x2003;" horiz-adv-x="1772" />
<glyph unicode="&#x2004;" horiz-adv-x="590" />
<glyph unicode="&#x2005;" horiz-adv-x="443" />
<glyph unicode="&#x2006;" horiz-adv-x="295" />
<glyph unicode="&#x2007;" horiz-adv-x="295" />
<glyph unicode="&#x2008;" horiz-adv-x="221" />
<glyph unicode="&#x2009;" horiz-adv-x="354" />
<glyph unicode="&#x200a;" horiz-adv-x="98" />
<glyph unicode="&#x2010;" horiz-adv-x="655" d="M41 465v143h573v-143h-573z" />
<glyph unicode="&#x2011;" horiz-adv-x="655" d="M41 465v143h573v-143h-573z" />
<glyph unicode="&#x2012;" horiz-adv-x="655" d="M41 465v143h573v-143h-573z" />
<glyph unicode="&#x2013;" horiz-adv-x="1024" d="M20 506v143h984v-143h-984z" />
<glyph unicode="&#x2014;" horiz-adv-x="2048" d="M20 506v143h2008v-143h-2008z" />
<glyph unicode="&#x2018;" horiz-adv-x="468" d="M106 991l150 453h127l-150 -453h-127z" />
<glyph unicode="&#x2019;" horiz-adv-x="468" d="M111 991l149 453h127l-149 -453h-127z" />
<glyph unicode="&#x201a;" horiz-adv-x="468" d="M86 -309l150 452h126l-149 -452h-127z" />
<glyph unicode="&#x201c;" horiz-adv-x="718" d="M102 991h136v135l149 318h-135l-150 -318v-135zM373 991h135v135l149 318h-135l-149 -318v-135z" />
<glyph unicode="&#x201d;" horiz-adv-x="718" d="M102 991h136l149 318v135h-135v-135zM373 991h135l149 318v135h-135v-135z" />
<glyph unicode="&#x201e;" horiz-adv-x="739" d="M80 -309h135l150 317v135h-136v-135zM350 -309h135l150 317v135h-135v-135z" />
<glyph unicode="&#x2022;" horiz-adv-x="1206" d="M207 684q0 -164 115.5 -279.5t279.5 -115.5t280.5 115.5t116.5 279.5t-116.5 280.5t-280.5 116.5t-279.5 -116.5t-115.5 -280.5z" />
<glyph unicode="&#x2026;" horiz-adv-x="985" d="M57 0v164h168v-164h-168zM410 0v164h168v-164h-168zM762 0v164h168v-164h-168z" />
<glyph unicode="&#x202f;" horiz-adv-x="354" />
<glyph unicode="&#x2039;" horiz-adv-x="614" d="M102 553v147l410 -294v-148zM102 553v147l410 297v-147z" />
<glyph unicode="&#x203a;" horiz-adv-x="614" d="M102 258l410 295v147l-410 -294v-148zM102 850l410 -297v147l-410 297v-147z" />
<glyph unicode="&#x205f;" horiz-adv-x="443" />
<glyph unicode="&#x20ac;" horiz-adv-x="1169" d="M41 514h676v133h-676v-133zM41 791h676v133h-676v-133zM221 721q0 -210 61 -381t164 -265.5t226 -94.5q140 0 252 122.5t163 327.5h-147q-41 -141 -111.5 -224t-156.5 -83q-84 0 -154.5 79.5t-111.5 217.5t-41 301t41 301.5t111.5 218.5t154.5 80q85 0 156 -84t112 -223 h147q-51 205 -163.5 327.5t-251.5 122.5q-123 0 -226 -95t-164 -266.5t-61 -381.5z" />
<glyph unicode="&#xe000;" horiz-adv-x="839" d="M0 0v840h840v-840h-840z" />
<glyph unicode="&#xfb01;" horiz-adv-x="927" d="M61 715v123h676v-123h-676zM236 0v1167q0 138 78 217.5t216 79.5q132 0 208.5 -82t76.5 -196v-92h-133v80q0 78 -38.5 122.5t-113.5 44.5q-76 0 -118.5 -43t-42.5 -120v-1178h-133zM682 0v838h133v-838h-133z" />
<glyph unicode="&#xfb02;" horiz-adv-x="927" d="M61 715v123h492v-123h-492zM236 0v1167q0 138 78 217.5t216 79.5q96 0 164 -73l-8 -138q-57 88 -156 88q-76 0 -118.5 -43t-42.5 -120v-1178h-133zM682 0v1444h133v-1444h-133z" />
<glyph unicode="&#xfb03;" horiz-adv-x="1374" d="M61 715v123h553v-123h-553zM236 0v1167q0 138 78 217.5t216 79.5q132 0 208.5 -82t76.5 -196v-92h-133v80q0 78 -38.5 122.5t-113.5 44.5q-76 0 -118.5 -43t-42.5 -120v-1178h-133zM508 715v123h676v-123h-676zM682 0v1167q0 138 78.5 217.5t216.5 79.5q132 0 208.5 -82 t76.5 -196v-92h-134v80q0 79 -38 123t-113 44q-76 0 -119 -43t-43 -120v-1178h-133zM1128 0v838h134v-838h-134z" />
<glyph unicode="&#xfb04;" horiz-adv-x="1374" d="M61 715v123h938v-123h-938zM236 0v1167q0 138 78 217.5t216 79.5q132 0 208.5 -82t76.5 -196v-92h-133v80q0 78 -38.5 122.5t-113.5 44.5q-76 0 -118.5 -43t-42.5 -120v-1178h-133zM682 0v1167q0 138 78.5 217.5t216.5 79.5q96 0 164 -73l-8 -138q-57 88 -156 88 q-76 0 -119 -43t-43 -120v-1178h-133zM1128 0v1444h134v-1444h-134z" />
</font>
</defs>
</svg>
